# xmcd
#
# Track frame offsets: 
#        150
#        14704
#        28354
#        41850
#        54948
#        68838
#        83831
#        98888
#        113037
#        127067
#        142259
#        152666
#        166328
#        179421
#        191756
#        205077
#        217916
#        232508
#        245907
#        258088
#        269869
#        282681
#        296540
#        310318
#
# Disc length: 4318 seconds
#
# Revision: 0
# Processed by: cddbd v1.5.2PL0 Copyright (c) Steve Scherf et al.
# Submitted via: ExactAudioCopyFreeDBPlugin 1.0
#
DISCID=7510dc18
DTITLE=Victoriy Spivey - The Victoriy Spivey Collection: 1926-1937 [CD
DTITLE=2]
DYEAR=2015
DGENRE=Blues
TTITLE0=Telephoning The Blues
TTITLE1=Moaning The Blues
TTITLE2=New York Blues
TTITLE3=Showered With The Blues
TTITLE4=You Gotta Have What It Takes [With Harold Grey Aka Porter Grai
TTITLE4=nger]
TTITLE5=Baulin' Water Blues (Pt. 1) [With Harold Grey Aka Porter Grain
TTITLE5=ger]
TTITLE6=Nebraska Blues
TTITLE7=Low Down Man Blues
TTITLE8=Don't Trust Nobody Blues
TTITLE9=Dreaming 'bout My Man [With Lloyd Hunter's Serenaders]
TTITLE10=I'll Never Fall In Love Again [With Her Hallelujah Boys]
TTITLE11=Black Snake Swing [With Her Hallelujah Boys]
TTITLE12=Sweet Pease [With Her Hallelujah Boys]
TTITLE13=Dreaming Of You [Aka Jane Lucas and The State Street Four]
TTITLE14=Mr. Freddie Blues [Aka Jane Lucas]
TTITLE15=Any Kind A Man [With Her Chicago Four]
TTITLE16=Hollywood Stomp [With Her Chicago Four]
TTITLE17=Detroit Moan [With Her Chicago Four]
TTITLE18=One Hour Mama
TTITLE19=Got The Blues So Bad
TTITLE20=Give It To Him
TTITLE21=Good Cabbage
TTITLE22=From 1 To 12 (Dirty Dozen)
TTITLE23=Down Hill Pull
EXTD=
EXTT0=
EXTT1=
EXTT2=
EXTT3=
EXTT4=
EXTT5=
EXTT6=
EXTT7=
EXTT8=
EXTT9=
EXTT10=
EXTT11=
EXTT12=
EXTT13=
EXTT14=
EXTT15=
EXTT16=
EXTT17=
EXTT18=
EXTT19=
EXTT20=
EXTT21=
EXTT22=
EXTT23=
PLAYORDER=
